<?xml version="1.0" standalone="no"?><!DOCTYPE svg PUBLIC "-//W3C//DTD SVG 1.1//EN" "http://www.w3.org/Graphics/SVG/1.1/DTD/svg11.dtd"><svg t="1517903583445" class="icon" style="" viewBox="0 0 1024 1024" version="1.1" xmlns="http://www.w3.org/2000/svg" p-id="3133" data-spm-anchor-id="a313x.7781069.0.i6" xmlns:xlink="http://www.w3.org/1999/xlink" width="64" height="64"><defs><style type="text/css"></style></defs><path d="M513.151219 961.381847c-247.124354 0-448.180486-201.035666-448.180486-448.16002S266.026866 65.041342 513.151219 65.041342 961.290773 266.097474 961.290773 513.221828 760.276596 961.381847 513.151219 961.381847zM513.151219 129.486096c-211.586976 0-383.735731 172.147732-383.735731 383.735731S301.564243 896.936069 513.151219 896.936069 896.844995 724.808804 896.844995 513.221828 724.739219 129.486096 513.151219 129.486096z" p-id="3134" fill="#1b37a8"></path><path d="M477.866598 622.015649c-17.789155 0-32.222889-14.432711-32.222889-32.222889L445.64371 320.388984c0-17.789155 14.432711-32.222889 32.222889-32.222889 17.789155 0 32.222889 14.432711 32.222889 32.222889l0 269.403776C510.088464 607.581915 495.655753 622.015649 477.866598 622.015649z" p-id="3135" fill="#1b37a8"></path><path d="M684.334997 622.015649 477.866598 622.015649c-17.789155 0-32.222889-14.432711-32.222889-32.222889s14.432711-32.222889 32.222889-32.222889l206.468398 0c17.789155 0 32.222889 14.432711 32.222889 32.222889S702.124152 622.015649 684.334997 622.015649z" p-id="3136" fill="#1b37a8"></path></svg>